<svg width="30" height="49" viewBox="0 0 30 49" fill="none" xmlns="http://www.w3.org/2000/svg">
<g clip-path="url(#clip0_1_1805)">
<path d="M9 12.5C9 9.19063 11.6906 6.5 15 6.5C18.3094 6.5 21 9.19063 21 12.5C21 16.4 19.0594 19.6813 16.6312 22.2594C16.0781 22.8406 15.525 23.3656 15 23.825C14.475 23.3656 13.9219 22.8406 13.3688 22.2594C10.9406 19.6813 9 16.4 9 12.5ZM15 0.5C8.37188 0.5 3 5.87188 3 12.5C3 17.4125 5.01563 21.4531 7.3875 24.5H3C1.34062 24.5 0 25.8406 0 27.5C0 29.1594 1.34062 30.5 3 30.5H12V45.5C12 47.1594 13.3406 48.5 15 48.5C16.6594 48.5 18 47.1594 18 45.5V30.5H27C28.6594 30.5 30 29.1594 30 27.5C30 25.8406 28.6594 24.5 27 24.5H22.6125C24.9937 21.4531 27 17.4125 27 12.5C27 5.87188 21.6281 0.5 15 0.5Z" fill="#FFCD4F"/>
</g>
<defs>
<clipPath id="clip0_1_1805">
<rect width="30" height="48" fill="white" transform="translate(0 0.5)"/>
</clipPath>
</defs>
</svg>
