<svg width="644" height="1062" viewBox="0 0 644 1062" fill="none" xmlns="http://www.w3.org/2000/svg">
<path fill-rule="evenodd" clip-rule="evenodd" d="M537.253 -110.307V-110.307L539.634 -109.287L541.992 -108.21L544.329 -107.074L546.644 -105.881L548.936 -104.63L551.206 -103.321L553.452 -101.955L555.676 -100.531L557.876 -99.0502L560.053 -97.5123L562.206 -95.9174L564.335 -94.2659L566.439 -92.5578L568.52 -90.7932L570.576 -88.9725L572.606 -87.0956L574.612 -85.1629L576.593 -83.1746L578.548 -81.1307L580.478 -79.0315L582.382 -76.8773L584.259 -74.6683L586.111 -72.4047L587.936 -70.0866L589.735 -67.7144L591.507 -65.2882L593.252 -62.8084L594.97 -60.2751L596.661 -57.6886L598.324 -55.0492L599.96 -52.3572L601.568 -49.6127L603.148 -46.8161L604.699 -43.9678L606.223 -41.0678L607.718 -38.1165L609.185 -35.1143L610.623 -32.0614L612.033 -28.9582L613.413 -25.8049L614.764 -22.6019L616.086 -19.3494L617.379 -16.0479L618.642 -12.6976L619.875 -9.29887L621.079 -5.85199L622.253 -2.35749L623.397 1.18446L624.51 4.77353L625.594 8.40917L626.647 12.0912L627.67 15.8192L628.662 19.5927L629.624 23.4114L630.555 27.2749L631.455 31.1829L632.324 35.1349L633.162 39.1306L633.97 43.1694L634.746 47.2512L635.49 51.3754L636.204 55.5415L636.886 59.7493L637.536 63.9984L638.155 68.2881L638.743 72.6182L639.299 76.9882L639.823 81.3976L640.315 85.846L640.776 90.3331L641.205 94.8582L641.602 99.421L641.967 104.021L642.3 108.658L642.601 113.331L642.87 118.04L643.107 122.784L643.312 127.563L643.484 132.377L643.625 137.224L643.734 142.105L643.81 147.019L643.854 151.965L643.867 156.944L643.847 161.953L643.794 166.994L643.71 172.065L643.594 177.166L643.445 182.297L643.265 187.456L643.052 192.644L642.807 197.86L642.53 203.103L642.221 208.373L641.88 213.669L641.508 218.992L641.103 224.339L640.666 229.711L640.198 235.107L639.698 240.527L639.166 245.97L638.602 251.436L638.007 256.924L637.38 262.433L636.722 267.963L636.032 273.513L635.311 279.083L634.559 284.673L633.775 290.281L632.96 295.907L632.115 301.551L631.238 307.212L630.33 312.889L629.392 318.582L628.423 324.29L627.423 330.014L626.393 335.751L625.332 341.502L624.241 347.266L623.12 353.042L621.969 358.83L620.788 364.63L619.577 370.44L618.336 376.26L617.065 382.09L615.766 387.929L614.437 393.776L613.078 399.631L611.691 405.493L610.274 411.362L608.829 417.236L607.356 423.116L605.853 429.001L604.323 434.891L602.764 440.784L601.177 446.68L599.562 452.578L597.92 458.479L596.25 464.38L594.553 470.283L592.828 476.185L591.076 482.087L589.298 487.989L587.493 493.888L585.661 499.785L583.803 505.68L581.919 511.571L580.008 517.458L578.073 523.34L576.111 529.217L574.124 535.089L572.112 540.954L570.075 546.812L568.014 552.662L565.927 558.505L563.816 564.339L561.682 570.163L559.523 575.978L557.34 581.782L555.135 587.576L552.905 593.357L550.653 599.127L548.378 604.883L546.08 610.627L543.76 616.356L541.418 622.071L539.054 627.771L536.668 633.456L534.261 639.124L531.832 644.775L529.383 650.409L526.913 656.025L524.422 661.623L521.912 667.202L519.381 672.761L516.831 678.3L514.261 683.819L511.672 689.316L509.064 694.791L506.437 700.244L503.792 705.674L501.129 711.081L498.448 716.464L495.75 721.823L493.034 727.156L490.301 732.464L487.551 737.745L484.784 743.001L482.002 748.228L479.203 753.429L476.389 758.601L473.559 763.744L470.715 768.858L467.855 773.943L464.981 778.997L462.093 784.021L459.19 789.013L456.274 793.973L453.345 798.902L450.402 803.797L447.447 808.659L444.479 813.488L441.499 818.282L438.507 823.042L435.504 827.767L432.489 832.456L429.463 837.109L426.426 841.725L423.379 846.304L420.322 850.846L417.255 855.35L414.179 859.816L411.094 864.242L407.999 868.63L404.896 872.978L401.785 877.285L398.666 881.552L395.539 885.778L392.405 889.963L389.264 894.106L386.116 898.206L382.962 902.264L379.801 906.279L376.635 910.251L373.464 914.178L370.288 918.061L367.106 921.9L363.92 925.693L360.73 929.442L357.537 933.144L354.339 936.8L351.139 940.41L347.936 943.973L344.73 947.488L341.521 950.956L338.311 954.376L335.1 957.748L331.887 961.071L328.673 964.345L325.458 967.57L322.244 970.745L319.029 973.871L315.814 976.946L312.601 979.971L309.388 982.945L306.176 985.867L302.966 988.738L299.758 991.558L296.553 994.325L293.349 997.041L290.149 999.703L286.952 1002.31L283.759 1004.87L280.569 1007.37L277.384 1009.82L274.203 1012.22L271.027 1014.56L267.856 1016.85L264.69 1019.08L261.531 1021.26L258.377 1023.38L255.23 1025.45L252.089 1027.47L248.956 1029.42L245.829 1031.32L242.711 1033.17L239.6 1034.96L236.498 1036.69L233.404 1038.37L230.32 1039.99L227.244 1041.55L224.178 1043.06L221.122 1044.51L218.076 1045.9L215.04 1047.23L212.015 1048.51L209.001 1049.73L205.999 1050.89L203.008 1051.99L200.029 1053.04L197.062 1054.03L194.108 1054.95L191.166 1055.82L188.238 1056.64L185.323 1057.39L182.422 1058.09L179.535 1058.72L176.662 1059.3L173.803 1059.82L170.96 1060.28L168.132 1060.68L165.319 1061.02L162.522 1061.3L159.74 1061.53L156.975 1061.69L154.227 1061.8L151.496 1061.85L148.781 1061.84L146.084 1061.76L143.404 1061.64L140.743 1061.45L138.099 1061.2L135.474 1060.89L132.868 1060.53L130.281 1060.1L127.712 1059.62L125.164 1059.08L122.635 1058.47L120.126 1057.82L117.637 1057.1L115.169 1056.32L112.721 1055.48L110.295 1054.59L107.889 1053.64L105.505 1052.63L103.143 1051.56L100.803 1050.43L98.4844 1049.25L96.1886 1048.01L93.9154 1046.71L91.6651 1045.35L89.4378 1043.94L87.2339 1042.47L85.0534 1040.94L82.8967 1039.35L80.7639 1037.71L78.6553 1036.01L76.5711 1034.25L74.5114 1032.44L72.4765 1030.57L70.4667 1028.65L68.482 1026.67L66.5227 1024.64L64.5889 1022.54L62.681 1020.4L60.7991 1018.2L58.9433 1015.94L57.1138 1013.63L55.3109 1011.27L53.5346 1008.85L51.7853 1006.38L50.063 1003.86L48.3679 1001.28L46.7003 998.648L45.0602 995.965L43.4478 993.229L41.8634 990.44L40.307 987.6L38.7788 984.708L37.2789 981.765L35.8076 978.771L34.3649 975.726L32.951 972.631L31.5661 969.486L30.2103 966.291L28.8836 963.046L27.5863 959.752L26.3185 956.41L25.0803 953.019L23.8719 949.579L22.6932 946.092L21.5446 942.558L20.426 938.976L19.3377 935.348L18.2796 931.674L17.2519 927.953L16.2548 924.187L15.2882 920.375L14.3524 916.519L13.4474 912.618L12.5733 908.673L11.7301 904.684L10.918 900.652L10.1371 896.577L9.38739 892.46L8.66898 888.3L7.98194 884.099L7.32633 879.856L6.70224 875.573L6.10971 871.249L5.5488 866.886L5.01958 862.483L4.52209 858.04L4.0564 853.559L3.62253 849.04L3.22054 844.483L2.85046 839.889L2.51234 835.258L2.2062 830.591L1.93208 825.888L1.69 821.149L1.48 816.375L1.30208 811.567L1.15627 806.725L1.04258 801.85L0.961033 796.941L0.91162 792L0.894352 787.027L0.909235 782.022L0.956267 776.986L1.03544 771.92L1.14675 766.823L1.29018 761.697L1.46572 756.543L1.67335 751.359L1.91305 746.148L2.18479 740.909L2.48856 735.643L2.82431 730.351L3.19202 725.033L3.59165 719.69L4.02316 714.321L4.4865 708.929L4.98164 703.513L5.50851 698.073L6.06707 692.611L6.65726 687.127L7.27902 681.621L7.9323 676.095L8.617 670.548L9.3331 664.98L10.0805 659.394L10.8591 653.789L11.6689 648.166L12.5098 642.524L13.3816 636.866L14.2843 631.192L15.2179 625.501L16.1821 619.795L17.177 614.074L18.2024 608.339L19.2582 602.59L20.3444 596.828L21.4607 591.054L22.6071 585.268L23.7835 579.47L24.9898 573.661L26.2258 567.843L27.4914 562.014L28.7865 556.177L30.111 550.331L31.4647 544.477L32.8475 538.616L34.2592 532.749L35.6997 526.875L37.1689 520.996L38.6667 515.111L40.1928 509.223L41.7471 503.33L43.3295 497.435L44.9398 491.537L46.5778 485.636L48.2435 479.735L49.9365 473.833L51.6568 467.93L53.4041 462.028L55.1784 456.126L56.9793 450.227L58.8068 444.329L60.6607 438.434L62.5407 432.543L64.4467 426.655L66.3785 420.772L68.336 414.894L70.3188 409.021L72.3268 403.155L74.3598 397.296L76.4176 391.444L78.5001 385.6L80.6069 379.765L82.7379 373.939L84.8928 368.123L87.0715 362.317L89.2738 356.522L91.4993 350.738L93.7479 344.967L96.0194 339.208L98.3136 333.462L100.63 327.731L102.969 322.013L105.329 316.311L107.712 310.624L110.116 304.953L112.541 299.299L114.987 293.662L117.453 288.043L119.941 282.442L122.448 276.861L124.976 271.298L127.523 265.756L130.09 260.234L132.676 254.734L135.281 249.255L137.904 243.798L140.546 238.364L143.207 232.953L145.885 227.567L148.581 222.204L151.294 216.867L154.024 211.555L156.771 206.269L159.535 201.01L162.315 195.778L165.111 190.573L167.923 185.396L170.75 180.248L173.592 175.129L176.45 170.04L179.321 164.981L182.208 159.953L185.108 154.955L188.022 149.99L190.949 145.056L193.889 140.156L196.843 135.288L199.808 130.454L202.787 125.654L205.777 120.889L208.778 116.159L211.791 111.464L214.816 106.805L217.85 102.183L220.896 97.5977L223.951 93.0499L227.017 88.5398L230.091 84.0682L233.176 79.6352L236.269 75.2414L239.37 70.8873L242.48 66.5733L245.598 62.2998L248.724 58.0671L251.857 53.8759L254.997 49.7263L258.144 45.619L261.297 41.5543L264.456 37.5326L267.621 33.5543L270.792 29.6198L273.967 25.7295L277.148 21.8838L280.333 18.083L283.522 14.3276L286.716 10.618L289.912 6.95433L293.112 3.33726L296.315 -0.233039L299.521 -3.75618L302.729 -7.23171L305.938 -10.6594L309.15 -14.0389L312.363 -17.3698L315.576 -20.6518L318.791 -23.8846L322.006 -27.0679L325.22 -30.2012L328.435 -33.2844L331.649 -36.3171L334.862 -39.299L338.074 -42.2299L341.284 -45.1093L344.492 -47.9372L347.698 -50.713L350.902 -53.4365L354.102 -56.1076L357.3 -58.726L360.494 -61.2913L363.684 -63.8033L366.87 -66.2618L370.052 -68.6664L373.229 -71.0171L376.401 -73.3135L379.567 -75.5554L382.728 -77.7426L385.882 -79.8749L389.031 -81.952L392.172 -83.9738L395.307 -85.94L398.434 -87.8505L401.554 -89.7049L404.666 -91.5034L407.77 -93.2454L410.865 -94.9311L413.951 -96.56L417.028 -98.1321L420.095 -99.6473L423.153 -101.105L426.201 -102.506L429.238 -103.849L432.265 -105.135L435.281 -106.363L438.285 -107.534L441.278 -108.646L444.259 -109.701L447.228 -110.697L450.184 -111.635L453.127 -112.515L456.058 -113.336L458.975 -114.099L461.878 -114.803L464.768 -115.449L467.643 -116.036L470.503 -116.564L473.349 -117.033L476.18 -117.444L478.995 -117.795L481.795 -118.088L484.579 -118.322L487.346 -118.496L490.097 -118.612L492.832 -118.669L495.549 -118.666L498.249 -118.605L500.931 -118.484L503.596 -118.305L506.242 -118.067L508.87 -117.769L511.479 -117.413L514.07 -116.998L516.641 -116.524L519.193 -115.991L521.725 -115.399L524.237 -114.749L526.729 -114.04L529.201 -113.272L531.652 -112.446L534.082 -111.562L536.49 -110.619L537.253 -110.307Z" fill="#FFD700"/>
</svg>
